<?xml version="1.0" encoding="UTF-8" standalone="no"?>
<!-- Generator: Adobe Illustrator 17.0.0, SVG Export Plug-In . SVG Version: 6.00 Build 0)  -->

<svg
   xmlns:dc="http://purl.org/dc/elements/1.1/"
   xmlns:cc="http://creativecommons.org/ns#"
   xmlns:rdf="http://www.w3.org/1999/02/22-rdf-syntax-ns#"
   xmlns:svg="http://www.w3.org/2000/svg"
   xmlns="http://www.w3.org/2000/svg"
   xmlns:sodipodi="http://sodipodi.sourceforge.net/DTD/sodipodi-0.dtd"
   xmlns:inkscape="http://www.inkscape.org/namespaces/inkscape"
   id="Слой_1"
   enable-background="new 0 0 355.201 240"
   xml:space="preserve"
   height="241"
   viewBox="0 0 214.66667 40.166666"
   width="1288"
   version="1.1"
   y="0px"
   x="0px"
   inkscape:version="0.91 r13725"
   sodipodi:docname="logo_bold_compressed.svg"><defs
     id="defs92" /><sodipodi:namedview
     pagecolor="#ffffff"
     bordercolor="#666666"
     borderopacity="1"
     objecttolerance="10"
     gridtolerance="10"
     guidetolerance="10"
     inkscape:pageopacity="0"
     inkscape:pageshadow="2"
     inkscape:window-width="1440"
     inkscape:window-height="781"
     id="namedview90"
     showgrid="false"
     fit-margin-top="0"
     fit-margin-left="0"
     fit-margin-right="0"
     fit-margin-bottom="0"
     inkscape:zoom="0.60571429"
     inkscape:cx="750.52708"
     inkscape:cy="103.1798"
     inkscape:window-x="0"
     inkscape:window-y="1"
     inkscape:window-maximized="1"
     inkscape:current-layer="Слой_1" /><metadata
     id="metadata180"><rdf:RDF><cc:Work
         rdf:about=""><dc:format>image/svg+xml</dc:format><dc:type
           rdf:resource="http://purl.org/dc/dcmitype/StillImage" /><dc:title></dc:title></cc:Work></rdf:RDF></metadata><g
     id="XMLID_1_"
     transform="matrix(0.46016578,0,0,0.46016578,-0.13000143,-70.165903)"><g
       id="g4"
       transform="translate(0.17851,246.06)"><path
         id="path6"
         d="m 466.16,-36.968 -0.90164,2.9471 c -0.65497,-0.46237 -1.2908,-0.69013 -1.9145,-0.69013 -0.56289,0 -1.0754,0.19523 -1.541,0.58566 -0.46906,0.39557 -0.78872,0.92472 -0.97981,1.6268 -0.34746,1.2124 -0.51425,2.5087 -0.51425,3.8719 l 0,9.8312 -2.6338,0 0,-18.78 2.387,0 0,2.8478 c 0.61153,-1.3169 1.1657,-2.1902 1.6782,-2.6201 0.50903,-0.43496 1.0806,-0.64559 1.7199,-0.64559 0.87039,0.0015 1.7807,0.33564 2.6997,1.0258 z"
         inkscape:connector-curvature="0"
         style="fill:#0c0e0f;stroke:#000000;stroke-width:0.33333001" /><path
         id="path8"
         d="m 454.41,-28.214 -0.0207,0.84594 -11.657,0 c 0.10597,2.1132 0.6063,3.7058 1.4923,4.7743 0.87386,1.0686 1.9579,1.6114 3.2157,1.6114 1.991,0 3.3704,-1.2809 4.1469,-3.865 l 2.731,0.41442 c -0.4569,1.9984 -1.2786,3.5088 -2.4635,4.538 -1.1935,1.0172 -2.6702,1.5241 -4.4179,1.5241 -2.2255,0 -4.0062,-0.82198 -5.3856,-2.4813 -1.3603,-1.6628 -2.0517,-4.0431 -2.0517,-7.1666 0,-3.2502 0.69144,-5.723 2.0761,-7.4183 1.3794,-1.7022 3.1272,-2.5567 5.2432,-2.5567 2.0187,0 3.7056,0.82882 5.066,2.5053 1.3464,1.6748 2.0257,4.0996 2.0257,7.2745 z m -11.515,-1.7673 8.7195,0 c -0.12166,-1.6354 -0.48123,-2.8478 -1.0632,-3.6492 -0.84605,-1.173 -1.9267,-1.7433 -3.2366,-1.7433 -1.1935,0 -2.2012,0.47778 -3.0351,1.447 -0.84607,0.97438 -1.303,2.2878 -1.3846,3.9455 z"
         inkscape:connector-curvature="0"
         style="fill:#0c0e0f;stroke:#000000;stroke-width:0.33333001" /><path
         id="path10"
         d="m 439.5,-81.021 -5.9312,19.087 c -0.77309,2.4813 -1.3881,4.1321 -1.8363,4.9644 -0.44473,0.82882 -0.95897,1.4231 -1.534,1.7947 -0.56289,0.36303 -1.2057,0.54627 -1.9267,0.54627 -0.50208,0 -1.0719,-0.13523 -1.7078,-0.39044 l -0.28318,-2.9865 c 0.57852,0.19521 1.0841,0.2877 1.501,0.2877 0.56288,0 1.032,-0.11646 1.395,-0.33907 0.36484,-0.22776 0.66712,-0.57368 0.90688,-1.0377 0.0852,-0.17467 0.42909,-1.2124 1.0406,-3.1269 l -5.9398,-18.799 2.844,0 3.2765,10.872 c 0.40479,1.3443 0.77659,2.7964 1.124,4.3462 0.29882,-1.471 0.66018,-2.8872 1.0719,-4.288 l 3.3374,-10.931 2.6616,0 z"
         inkscape:connector-curvature="0"
         style="fill:#0c0e0f;stroke:#000000;stroke-width:0.33333001" /><path
         id="path12"
         d="m 438.44,-21.638 0.35266,2.8033 c -0.72791,0.19523 -1.3829,0.2877 -1.9701,0.2877 -0.91381,0 -1.6678,-0.18324 -2.2289,-0.5377 -0.55422,-0.35962 -0.93466,-0.84596 -1.157,-1.4796 -0.21025,-0.62162 -0.31621,-1.87 -0.31621,-3.7297 l 0,-10.804 -1.9336,0 0,-2.4762 1.9336,0 0,-4.6459 2.6372,-1.906 0,6.5518 2.6824,0 0,2.4762 -2.6824,0 0,10.984 c 0,1.0172 0.0852,1.6628 0.24323,1.9573 0.22585,0.42297 0.64801,0.64216 1.27,0.64216 0.30402,0.0015 0.68795,-0.04284 1.1692,-0.12335 z"
         inkscape:connector-curvature="0"
         style="fill:#0c0e0f;stroke:#000000;stroke-width:0.33333001" /><path
         id="path14"
         d="m 429.36,-28.337 c 0,3.1869 -0.67929,5.6477 -2.0309,7.3772 -1.3672,1.7227 -2.9499,2.5875 -4.7863,2.5875 -0.81303,0 -1.574,-0.2072 -2.2776,-0.62162 -0.70361,-0.40756 -1.3151,-0.99322 -1.8294,-1.7433 l 0,9.1325 -2.6337,0 0,-25.971 2.4357,0 0,2.4454 c 0.59936,-1.0172 1.263,-1.7433 1.9909,-2.1971 0.72791,-0.44353 1.5618,-0.66614 2.5,-0.66614 1.23,0 2.3419,0.35961 3.3374,1.0771 0.99198,0.72266 1.7807,1.8186 2.387,3.2776 0.60456,1.4693 0.90685,3.2365 0.90685,5.3017 z m -2.7102,0.048 c 0,-2.4522 -0.40828,-4.2708 -1.23,-5.4405 -0.82173,-1.1799 -1.8363,-1.7672 -3.0107,-1.7672 -1.065,0 -2.0222,0.6216 -2.8961,1.8905 -0.86518,1.2724 -1.3065,3.1115 -1.3065,5.5244 0,2.4368 0.40827,4.2229 1.23,5.372 0.82869,1.1525 1.8242,1.7261 2.9934,1.7261 1.124,0 2.1039,-0.59422 2.9447,-1.7861 0.84605,-1.1919 1.2752,-3.0276 1.2752,-5.5192 z"
         inkscape:connector-curvature="0"
         style="fill:#0c0e0f;stroke:#000000;stroke-width:0.33333001" /><path
         id="path16"
         d="m 424.17,-65.095 0.35267,2.8153 c -0.72793,0.18324 -1.3829,0.27571 -1.9701,0.27571 -0.92597,0 -1.6626,-0.17125 -2.2255,-0.53086 -0.56288,-0.35961 -0.95031,-0.85281 -1.1605,-1.4796 -0.20154,-0.63019 -0.30751,-1.87 -0.30751,-3.7297 l 0,-10.8 -1.9423,0 0,-2.4762 1.9423,0 0,-4.6493 2.6303,-1.9145 0,6.5638 2.6824,0 0,2.4762 -2.6824,0 0,10.972 c 0,1.0172 0.0887,1.6748 0.24322,1.9659 0.22237,0.42641 0.648,0.63361 1.2752,0.63361 0.28492,0.0015 0.68103,-0.04284 1.1623,-0.12162 z"
         inkscape:connector-curvature="0"
         style="fill:#0c0e0f;stroke:#000000;stroke-width:0.33333001" /><rect
         id="rect18"
         height="18.771999"
         width="2.6303"
         y="-81.021004"
         x="411.59"
         style="fill:#0c0e0f;stroke:#000000;stroke-width:0.33333001" /><rect
         id="rect20"
         height="3.6698"
         width="2.6303"
         y="-88.169998"
         x="411.59"
         style="fill:#0c0e0f;stroke:#000000;stroke-width:0.33333001" /><path
         id="path22"
         d="m 412.52,-18.794 -2.764,0 c -0.27103,-0.65073 -0.46039,-1.4162 -0.54204,-2.3255 -0.88952,0.91273 -1.805,1.596 -2.764,2.0584 -0.95031,0.46237 -1.9458,0.69013 -2.9742,0.69013 -1.6226,0 -2.9291,-0.48292 -3.8916,-1.4522 -0.97114,-0.96068 -1.4524,-2.269 -1.4524,-3.9044 0,-1.0891 0.2311,-2.0464 0.6793,-2.8872 0.45692,-0.82882 1.0754,-1.4881 1.8659,-1.9573 0.7922,-0.47092 1.9909,-0.8254 3.584,-1.0377 2.156,-0.31851 3.7352,-0.69011 4.7411,-1.1199 l 0.0129,-0.81341 c 0,-1.2843 -0.23106,-2.1851 -0.70014,-2.704 -0.66018,-0.75347 -1.6678,-1.1251 -3.035,-1.1251 -1.23,0 -2.1438,0.24316 -2.7588,0.75005 -0.60631,0.49832 -1.051,1.447 -1.3429,2.8324 l -2.5973,-0.41955 c 0.3683,-2.0138 1.1171,-3.4848 2.2533,-4.4061 1.124,-0.91273 2.7345,-1.3751 4.8436,-1.3751 1.6383,0 2.9291,0.30311 3.8551,0.91274 0.93815,0.60277 1.5219,1.3511 1.7755,2.2484 0.23802,0.89389 0.36484,2.1971 0.36484,3.9249 l 0,4.2435 c 0,2.9677 0.0608,4.8377 0.16503,5.6117 0.11637,0.77574 0.344,1.5258 0.68277,2.2553 z m -3.5145,-8.2591 0,-1.161 c -0.97117,0.46235 -2.4114,0.86992 -4.3259,1.2038 -1.1171,0.18324 -1.885,0.39558 -2.3297,0.64559 -0.44128,0.23118 -0.78526,0.57025 -1.0406,1.0172 -0.23454,0.43839 -0.36481,0.95725 -0.36481,1.5275 0,0.89733 0.28319,1.6148 0.84605,2.1457 0.56636,0.5377 1.336,0.80999 2.3384,0.80999 0.93815,0 1.8051,-0.24316 2.5695,-0.72608 0.7731,-0.47777 1.3481,-1.1251 1.7321,-1.9419 0.37526,-0.79801 0.57507,-1.9745 0.57507,-3.5208 z"
         inkscape:connector-curvature="0"
         style="fill:#0c0e0f;stroke:#000000;stroke-width:0.33333001" /><path
         id="path24"
         d="m 408.47,-67.847 c 0,1.7946 -0.582,3.2588 -1.7321,4.3667 -1.157,1.108 -2.731,1.6628 -4.7341,1.6628 -3.7387,0 -5.9068,-2.0224 -6.5131,-6.0501 l 2.6372,-0.49832 c 0.15292,1.3289 0.58723,2.3135 1.2752,2.9625 0.69665,0.65073 1.614,0.96583 2.764,0.96583 1.1414,0 2.0309,-0.27913 2.6546,-0.84596 0.62719,-0.55484 0.93814,-1.2604 0.93814,-2.1251 0,-0.73807 -0.27102,-1.3237 -0.81305,-1.7347 -0.36482,-0.27571 -1.263,-0.6336 -2.6911,-1.0566 -2.0518,-0.62675 -3.4277,-1.1525 -4.1261,-1.596 -0.6845,-0.43838 -1.23,-1.0172 -1.607,-1.7433 -0.38393,-0.72951 -0.58201,-1.5635 -0.58201,-2.4968 0,-1.6029 0.5212,-2.9112 1.5653,-3.9044 1.0441,-1.0052 2.4843,-1.5121 4.3259,-1.5121 1.157,0 2.1768,0.20721 3.0542,0.62676 0.88255,0.41099 1.5496,0.96582 2.0187,1.6594 0.46906,0.69354 0.79223,1.6902 0.97114,2.9865 l -2.5851,0.43154 c -0.23801,-2.0532 -1.3638,-3.0824 -3.386,-3.0824 -1.1483,0 -2.0031,0.22776 -2.566,0.68155 -0.56288,0.45038 -0.84607,1.0258 -0.84607,1.7313 0,0.69354 0.27102,1.2364 0.80439,1.6388 0.31965,0.23118 1.2786,0.61477 2.8735,1.1251 2.1925,0.69013 3.6083,1.233 4.2529,1.6354 0.64801,0.41098 1.1484,0.96582 1.501,1.6748 0.36485,0.69697 0.54552,1.5275 0.54552,2.4968 z"
         inkscape:connector-curvature="0"
         style="fill:#0c0e0f;stroke:#000000;stroke-width:0.33333001" /><path
         id="path26"
         d="m 395,-30.69 0,11.896 -2.6372,0 0,-11.896 c 0,-1.6303 -0.2919,-2.7964 -0.87039,-3.502 -0.582,-0.71409 -1.4003,-1.06 -2.4201,-1.06 -1.1484,0 -2.1247,0.45038 -2.9412,1.3597 -0.8009,0.91274 -1.2092,2.5173 -1.2092,4.8257 l 0,10.273 -2.6337,0 0,-25.918 2.6337,0 0,9.2969 c 0.63065,-0.86478 1.3273,-1.5001 2.1074,-1.9299 0.78874,-0.43496 1.6435,-0.64559 2.5938,-0.64559 1.6713,0 2.9743,0.5223 3.9454,1.5601 0.94857,1.0463 1.4315,2.9557 1.4315,5.7401 z"
         inkscape:connector-curvature="0"
         style="fill:#0c0e0f;stroke:#000000;stroke-width:0.33333001" /><path
         id="path28"
         d="m 394.98,-80.421 -0.89468,2.9557 c -0.66712,-0.46236 -1.303,-0.69354 -1.9302,-0.69354 -0.55418,0 -1.0719,0.19522 -1.541,0.58566 -0.45691,0.38702 -0.79222,0.92986 -0.97984,1.632 -0.33181,1.2124 -0.50209,2.4967 -0.50209,3.8599 l 0,9.8346 -2.6337,0 0,-18.774 2.3714,0 0,2.8478 c 0.61847,-1.3289 1.1814,-2.1971 1.6782,-2.632 0.51425,-0.4264 1.0841,-0.6456 1.7199,-0.6456 0.89123,0 1.7859,0.34592 2.7119,1.0292 z"
         inkscape:connector-curvature="0"
         style="fill:#0c0e0f;stroke:#000000;stroke-width:0.33333001" /><path
         id="path30"
         d="m 383.23,-71.667 -0.007,0.85281 -11.661,0 c 0.10597,2.1012 0.60633,3.6972 1.4889,4.7623 0.88602,1.0805 1.9579,1.6148 3.2331,1.6148 1.9788,0 3.3617,-1.2843 4.1348,-3.8479 l 2.731,0.39557 c -0.45693,2.0053 -1.2787,3.5139 -2.4722,4.538 -1.1848,1.0258 -2.6581,1.5361 -4.4179,1.5361 -2.2046,0 -4.001,-0.83397 -5.3769,-2.4848 -1.3638,-1.6594 -2.0518,-4.0517 -2.0518,-7.17 0,-3.2382 0.69665,-5.7144 2.0761,-7.4183 1.3829,-1.7073 3.1271,-2.5601 5.2484,-2.5601 2.0274,0 3.7022,0.84081 5.0608,2.5173 1.3394,1.6714 2.0152,4.0842 2.0152,7.2642 z m -11.515,-1.7707 8.7264,0 c -0.13035,-1.6234 -0.46907,-2.8427 -1.065,-3.6458 -0.84606,-1.161 -1.9267,-1.7467 -3.2453,-1.7467 -1.1848,0 -2.1977,0.48291 -3.035,1.4556 -0.83045,0.98123 -1.2873,2.2844 -1.3812,3.9369 z"
         inkscape:connector-curvature="0"
         style="fill:#0c0e0f;stroke:#000000;stroke-width:0.33333001" /><path
         id="path32"
         d="m 376.22,-27.887 2.8804,0.87677 c -0.63584,2.9026 -1.7442,5.0723 -3.3252,6.5125 -1.5862,1.423 -3.5163,2.1457 -5.7852,2.1457 -1.9979,0 -3.7109,-0.48292 -5.1268,-1.4402 -1.4159,-0.96924 -2.5764,-2.5053 -3.4798,-4.6305 -0.89818,-2.1183 -1.3603,-4.6219 -1.3603,-7.5211 0,-2.8478 0.46214,-5.2641 1.3707,-7.2419 0.88951,-1.9745 2.1195,-3.4609 3.6657,-4.4661 1.541,-1.0172 3.2609,-1.5241 5.1702,-1.5241 2.083,0 3.8637,0.6336 5.3648,1.906 1.4889,1.2878 2.5451,3.1578 3.1393,5.6237 l -2.7953,0.79801 c -0.95551,-3.5927 -2.877,-5.3925 -5.7661,-5.3925 -1.4368,0 -2.6859,0.35961 -3.7387,1.0925 -1.0563,0.71752 -1.8971,1.8512 -2.5208,3.3855 -0.62368,1.5343 -0.93814,3.478 -0.93814,5.8189 0,3.5499 0.6237,6.2128 1.8971,7.992 1.2665,1.7792 2.9569,2.6594 5.0538,2.6594 1.5653,0 2.8926,-0.54627 4.0305,-1.632 1.1344,-1.0908 1.8867,-2.7451 2.2637,-4.9627 z"
         inkscape:connector-curvature="0"
         style="fill:#0c0e0f;stroke:#000000;stroke-width:0.33333001" /><path
         id="path34"
         d="m 367.45,-81.021 -5.9398,18.772 -2.4687,0 -5.9398,-18.772 2.804,0 3.3547,11.242 c 0.38393,1.2724 0.72096,2.5327 1.0076,3.776 0.22238,-0.98123 0.5455,-2.1782 0.97114,-3.5653 l 3.4798,-11.455 2.731,0 z"
         inkscape:connector-curvature="0"
         style="fill:#0c0e0f;stroke:#000000;stroke-width:0.33333001" /><rect
         id="rect36"
         height="18.771999"
         width="2.6336999"
         y="-81.021004"
         x="347.98999"
         style="fill:#0c0e0f;stroke:#000000;stroke-width:0.33333001" /><rect
         id="rect38"
         height="3.6698"
         width="2.6336999"
         y="-88.169998"
         x="347.98999"
         style="fill:#0c0e0f;stroke:#000000;stroke-width:0.33333001" /><path
         id="path40"
         d="m 349.68,-21.638 0.36482,2.8033 c -0.72793,0.19523 -1.3829,0.2877 -1.9701,0.2877 -0.92598,0 -1.6626,-0.18324 -2.2342,-0.5377 -0.5629,-0.35962 -0.94683,-0.84596 -1.1536,-1.4796 -0.21021,-0.62162 -0.31618,-1.87 -0.31618,-3.7297 l 0,-10.804 -1.9336,0 0,-2.4762 1.9336,0 0,-4.6459 2.6372,-1.906 0,6.5518 2.6702,0 0,2.4762 -2.6702,0 0,10.984 c 0,1.0172 0.073,1.6628 0.2311,1.9573 0.22583,0.42297 0.66017,0.64216 1.2821,0.64216 0.2936,0.0015 0.67754,-0.04284 1.1588,-0.12335 z"
         inkscape:connector-curvature="0"
         style="fill:#0c0e0f;stroke:#000000;stroke-width:0.33333001" /><path
         id="path42"
         d="m 343.92,-73.786 0,11.537 -2.6337,0 0,-11.434 c 0,-1.3802 -0.13037,-2.3854 -0.35612,-3.0225 -0.24323,-0.63361 -0.61502,-1.1285 -1.124,-1.4796 -0.50903,-0.34763 -1.0962,-0.5223 -1.7634,-0.5223 -1.2665,0 -2.2828,0.47435 -3.035,1.3991 -0.76094,0.93328 -1.1362,2.5293 -1.1362,4.7931 l 0,10.266 -2.6303,0 0,-18.772 2.3836,0 0,2.6526 c 0.57503,-1.0377 1.2752,-1.8101 2.1074,-2.3084 0.83391,-0.51887 1.7807,-0.77403 2.8526,-0.77403 0.83737,0 1.6018,0.16268 2.3262,0.4949 0.7036,0.31509 1.2787,0.73807 1.7112,1.2724 0.43258,0.52572 0.76091,1.2004 0.97462,2.0344 0.21715,0.84081 0.32312,2.1251 0.32312,3.8633 z"
         inkscape:connector-curvature="0"
         style="fill:#0c0e0f;stroke:#000000;stroke-width:0.33333001" /><path
         id="path44"
         d="m 339.72,-30.344 0,11.549 -2.6338,0 0,-11.434 c 0,-1.3751 -0.11816,-2.3923 -0.35614,-3.019 -0.23455,-0.6456 -0.61499,-1.1405 -1.124,-1.4915 -0.5021,-0.34249 -1.0928,-0.51374 -1.7599,-0.51374 -1.2752,0 -2.2811,0.46237 -3.0386,1.3957 -0.74875,0.93671 -1.124,2.5293 -1.124,4.8017 l 0,10.261 -2.6372,0 0,-18.78 2.3836,0 0,2.6526 c 0.57506,-1.0292 1.2752,-1.7981 2.1074,-2.3084 0.82868,-0.50689 1.7755,-0.76204 2.8526,-0.76204 0.84606,0 1.614,0.16268 2.3228,0.48291 0.71227,0.32708 1.2873,0.75005 1.7199,1.2724 0.43603,0.52229 0.76092,1.2004 0.97112,2.0464 0.21197,0.8408 0.3162,2.1132 0.3162,3.8479 z"
         inkscape:connector-curvature="0"
         style="fill:#0c0e0f;stroke:#000000;stroke-width:0.33333001" /><path
         id="path46"
         d="m 326.8,-88.17 0,14.979 c 0,2.5053 -0.24672,4.5705 -0.74008,6.1854 -0.4934,1.6028 -1.4003,2.8752 -2.7102,3.7999 -1.303,0.93671 -2.969,1.3991 -4.9878,1.3991 -2.8405,0 -4.9687,-0.83395 -6.3811,-2.5087 -1.4159,-1.6748 -2.1247,-4.6305 -2.1247,-8.8773 l 0,-14.979 2.8526,0 0,14.955 c 0,2.3563 0.17373,4.0517 0.55071,5.1014 0.37181,1.0446 0.98334,1.8512 1.8242,2.3923 0.84086,0.54113 1.8658,0.82198 3.075,0.82198 2.0344,0 3.4989,-0.56683 4.4214,-1.6953 0.91381,-1.1285 1.3759,-3.3427 1.3759,-6.6203 l 0,-14.955 2.844,0 z"
         inkscape:connector-curvature="0"
         style="fill:#0c0e0f;stroke:#000000;stroke-width:0.33333001" /><path
         id="path48"
         d="m 323.78,-28.214 -0.0158,0.84594 -11.661,0 c 0.10598,2.1132 0.60285,3.7058 1.4889,4.7743 0.88255,1.0686 1.9579,1.6114 3.2331,1.6114 1.9823,0 3.3669,-1.2809 4.1382,-3.865 l 2.731,0.41442 c -0.46039,1.9984 -1.2874,3.5088 -2.4722,4.538 -1.1848,1.0172 -2.6581,1.5241 -4.4179,1.5241 -2.2133,0 -4.0062,-0.82198 -5.3735,-2.4813 -1.3759,-1.6628 -2.0587,-4.0431 -2.0587,-7.1666 0,-3.2502 0.69665,-5.723 2.076,-7.4183 1.3829,-1.7022 3.1324,-2.5567 5.2518,-2.5567 2.0188,0 3.7057,0.82882 5.0538,2.5053 1.3499,1.6748 2.0257,4.0996 2.0257,7.2745 z m -11.51,-1.7673 8.7108,0 c -0.11816,-1.6354 -0.46905,-2.8478 -1.0563,-3.6492 -0.84953,-1.173 -1.9336,-1.7433 -3.2487,-1.7433 -1.1779,0 -2.1925,0.47778 -3.0298,1.447 -0.83391,0.97438 -1.2908,2.2878 -1.376,3.9455 z"
         inkscape:connector-curvature="0"
         style="fill:#0c0e0f;stroke:#000000;stroke-width:0.33333001" /><path
         id="path50"
         d="m 306.13,-44.713 0,25.918 -2.4756,0 0,-2.3735 c -0.47775,0.91274 -1.0927,1.6029 -1.8485,2.0823 -0.7488,0.47436 -1.5653,0.71409 -2.4392,0.71409 -1.8415,0 -3.4312,-0.8528 -4.7741,-2.5721 -1.3481,-1.7107 -2.0187,-4.127 -2.0187,-7.242 0,-2.1251 0.29535,-3.9403 0.89472,-5.4199 0.59415,-1.4915 1.3881,-2.5875 2.387,-3.3102 0.99894,-0.71752 2.1074,-1.0771 3.3252,-1.0771 0.87038,0 1.6782,0.22262 2.427,0.67471 0.7401,0.45378 1.3638,1.0925 1.8537,1.9025 l 0,-9.2969 2.6685,0 z m -2.4166,16.898 c 0,-2.6286 -0.40828,-4.5431 -1.2422,-5.7556 -0.82177,-1.2004 -1.8659,-1.8032 -3.115,-1.8032 -1.1171,0 -2.0761,0.57025 -2.8804,1.7347 -0.8009,1.1559 -1.197,2.9916 -1.197,5.4764 0,2.4248 0.42563,4.2349 1.2821,5.4045 0.85301,1.1799 1.8572,1.7741 2.9934,1.7741 1.1206,0 2.0952,-0.57366 2.9169,-1.7073 0.83388,-1.1268 1.2422,-2.8307 1.2422,-5.1236 z"
         inkscape:connector-curvature="0"
         style="fill:#0c0e0f;stroke:#000000;stroke-width:0.33333001" /><path
         id="path52"
         d="m 297.04,-73.786 0,11.537 -2.6372,0 0,-11.434 c 0,-1.3802 -0.11296,-2.3854 -0.35267,-3.0225 -0.23455,-0.63361 -0.615,-1.1285 -1.124,-1.4796 -0.50556,-0.34763 -1.0962,-0.5223 -1.7599,-0.5223 -1.2752,0 -2.2811,0.47435 -3.035,1.3991 -0.74878,0.93328 -1.1293,2.5293 -1.1293,4.7931 l 0,10.266 -2.6372,0 0,-18.772 2.3836,0 0,2.6526 c 0.56984,-1.0377 1.2752,-1.8101 2.1038,-2.3084 0.82871,-0.51887 1.7807,-0.77403 2.8561,-0.77403 0.83737,0 1.6105,0.16268 2.3227,0.4949 0.71232,0.31509 1.2821,0.73807 1.7199,1.2724 0.42913,0.52572 0.75749,1.2004 0.97116,2.0344 0.21197,0.84081 0.31794,2.1251 0.31794,3.8633 z"
         inkscape:connector-curvature="0"
         style="fill:#0c0e0f;stroke:#000000;stroke-width:0.33333001" /><path
         id="path54"
         d="m 289.38,-37.574 0,18.78 -2.3662,0 0,-2.7639 c -0.61498,1.072 -1.3308,1.858 -2.156,2.3923 -0.8252,0.52573 -1.7599,0.79287 -2.8005,0.79287 -1.2335,0 -2.2811,-0.32365 -3.148,-0.98123 -0.87736,-0.65416 -1.4611,-1.4881 -1.7564,-2.4848 -0.29188,-0.99322 -0.4326,-2.3734 -0.4326,-4.0962 l 0,-11.641 2.6337,0 0,10.417 c 0,1.9299 0.0973,3.2297 0.29535,3.877 0.19805,0.66272 0.56289,1.1799 1.0928,1.584 0.52638,0.38359 1.1327,0.57882 1.8242,0.57882 1.263,0 2.2984,-0.49832 3.115,-1.5275 0.69664,-0.88534 1.0441,-2.5053 1.0441,-4.8702 l 0,-10.057 2.6546,0 z"
         inkscape:connector-curvature="0"
         style="fill:#0c0e0f;stroke:#000000;stroke-width:0.33333001" /><rect
         id="rect56"
         height="18.771999"
         width="2.6336999"
         y="-81.021004"
         x="277.67999"
         style="fill:#0c0e0f;stroke:#000000;stroke-width:0.33333001" /><rect
         id="rect58"
         height="3.6698"
         width="2.6336999"
         y="-88.169998"
         x="277.67999"
         style="fill:#0c0e0f;stroke:#000000;stroke-width:0.33333001" /><polygon
         id="polygon60"
         transform="matrix(1.7373,0,0,1.7125,-146.69,-253.5)"
         points="239.3,104.79 243.08,111.68 241.21,111.68 238.22,106.06 237.14,107.34 237.14,111.68 235.63,111.68 235.63,96.545 237.14,96.545 237.14,105.2 240.76,100.72 242.74,100.72 "
         style="fill:#0c0e0f;stroke:#000000;stroke-width:0.19326" /><path
         id="path62"
         d="m 274.29,-21.638 0.36831,2.8033 c -0.73314,0.19523 -1.3916,0.2877 -1.9736,0.2877 -0.92599,0 -1.6678,-0.18324 -2.229,-0.5377 -0.56285,-0.35962 -0.94682,-0.84596 -1.157,-1.4796 -0.20671,-0.62162 -0.31095,-1.87 -0.31095,-3.7297 l 0,-10.804 -1.9388,0 0,-2.4762 1.9388,0 0,-4.6459 2.6372,-1.906 0,6.5518 2.6668,0 0,2.4762 -2.6668,0 0,10.984 c 0,1.0172 0.073,1.6628 0.22587,1.9573 0.23105,0.42297 0.65495,0.64216 1.2787,0.64216 0.29881,0.0015 0.69142,-0.04284 1.1605,-0.12335 z"
         inkscape:connector-curvature="0"
         style="fill:#0c0e0f;stroke:#000000;stroke-width:0.33333001" /><path
         id="path64"
         d="m 264.9,-26.14 c 0,1.4796 -0.34746,2.8358 -1.0598,4.0482 -0.7001,1.2244 -1.666,2.1491 -2.8735,2.7845 -1.2178,0.63874 -2.6824,0.95725 -4.3902,0.95725 -2.6667,0 -4.7949,-0.79287 -6.3759,-2.3735 -1.5862,-1.584 -2.4114,-3.7212 -2.4687,-6.4131 l 2.698,-0.28768 c 0.1372,1.4316 0.4604,2.5396 0.97117,3.3256 0.50556,0.80486 1.2335,1.4436 2.1855,1.9265 0.93814,0.47778 2.0066,0.72951 3.1879,0.72951 1.6991,0 3.0142,-0.41442 3.9524,-1.2364 0.93815,-0.80999 1.4072,-1.87 1.4072,-3.1749 0,-0.76546 -0.17024,-1.435 -0.50902,-2.0104 -0.34051,-0.56683 -0.85303,-1.0292 -1.541,-1.3991 -0.69146,-0.35961 -2.1734,-0.88534 -4.4579,-1.5549 -2.0309,-0.58223 -3.4798,-1.1884 -4.345,-1.7827 -0.84953,-0.60963 -1.5219,-1.3682 -2.0031,-2.293 -0.47254,-0.92472 -0.71577,-1.9693 -0.71577,-3.1304 0,-2.1063 0.68798,-3.8239 2.0639,-5.1493 1.3794,-1.3323 3.2244,-2.0018 5.5559,-2.0018 1.6018,0 3.0107,0.31851 4.2112,0.93328 1.197,0.62675 2.1282,1.5241 2.7918,2.692 0.66712,1.1679 1.0198,2.5396 1.0754,4.1236 l -2.7554,0.24316 c -0.1372,-1.6868 -0.64802,-2.9351 -1.534,-3.752 -0.87039,-0.80999 -2.1039,-1.2124 -3.6987,-1.2124 -1.6105,0 -2.8405,0.35448 -3.6987,1.072 -0.84083,0.70553 -1.2752,1.632 -1.2752,2.7605 0,1.048 0.31619,1.8631 0.93468,2.4368 0.62367,0.58567 2.0222,1.1559 4.1956,1.7553 2.1247,0.59079 3.6206,1.0891 4.4788,1.5121 1.3151,0.66957 2.3176,1.5309 2.9864,2.6115 0.67407,1.0771 1.0059,2.3563 1.0059,3.8599 z"
         inkscape:connector-curvature="0"
         style="fill:#0c0e0f;stroke:#000000;stroke-width:0.33333001" /><path
         id="path66"
         d="m 259.38,-71.772 c 0,3.1749 -0.67931,5.6271 -2.0309,7.3533 -1.3516,1.7347 -2.9326,2.5995 -4.7463,2.5995 -0.90688,0 -1.7199,-0.23461 -2.4513,-0.6987 -0.72446,-0.47092 -1.3482,-1.161 -1.878,-2.0858 l 0,2.3529 -2.46,0 0,-25.92 2.658,0 0,9.2489 c 0.56289,-0.84081 1.197,-1.4796 1.9093,-1.9025 0.71228,-0.40756 1.501,-0.62676 2.3784,-0.62676 1.2179,0 2.3262,0.35962 3.3252,1.0806 0.99547,0.71752 1.7964,1.8066 2.3905,3.2742 0.60632,1.4641 0.90514,3.2348 0.90514,5.324 z m -2.7137,0.10444 c 0,-2.4694 -0.40479,-4.276 -1.2178,-5.4285 -0.81306,-1.1559 -1.8172,-1.7347 -3.002,-1.7347 -1.0928,0 -2.0639,0.60278 -2.9256,1.8101 -0.85822,1.209 -1.2821,2.9591 -1.2821,5.2487 0,1.9385 0.17373,3.4026 0.53855,4.3633 0.35617,0.96924 0.86519,1.7073 1.5288,2.2091 0.66367,0.50687 1.3916,0.76204 2.189,0.76204 1.0962,0 2.0639,-0.60621 2.9134,-1.8066 0.84433,-1.2124 1.2578,-3.0225 1.2578,-5.4233 z"
         inkscape:connector-curvature="0"
         style="fill:#0c0e0f;stroke:#000000;stroke-width:0.33333001" /><path
         id="path68"
         d="m 241.69,-81.021 0,18.772 -2.3662,0 0,-2.7553 c -0.60283,1.06 -1.3273,1.858 -2.149,2.3855 -0.82523,0.53428 -1.7599,0.80142 -2.8005,0.80142 -1.23,0 -2.2863,-0.3305 -3.1602,-0.98466 -0.87384,-0.65758 -1.4524,-1.483 -1.7442,-2.4882 -0.29186,-0.99665 -0.44822,-2.3615 -0.44822,-4.0996 l 0,-11.629 2.6372,0 0,10.408 c 0,1.9299 0.10598,3.2263 0.30404,3.8838 0.19804,0.65759 0.55766,1.1799 1.0928,1.572 0.53334,0.40241 1.1414,0.59764 1.8207,0.59764 1.2665,0 2.3106,-0.51888 3.1202,-1.5429 0.69668,-0.88191 1.0441,-2.5087 1.0441,-4.8617 l 0,-10.057 2.6494,0 z"
         inkscape:connector-curvature="0"
         style="fill:#0c0e0f;stroke:#000000;stroke-width:0.33333001" /><polygon
         id="polygon70"
         transform="matrix(1.7373,0,0,1.7125,-146.69,-253.5)"
         points="220.5,135.27 220.5,137.06 211.24,137.06 211.24,121.92 220.21,121.92 220.21,123.71 212.88,123.71 212.88,128.34 219.74,128.34 219.74,130.12 212.88,130.12 212.88,135.27 "
         style="fill:#0c0e0f;stroke:#000000;stroke-width:0.19326" /><path
         id="path72"
         d="m 225.32,-75.493 0,9.636 c -1.4003,1.3477 -2.844,2.3529 -4.3328,3.0344 -1.501,0.67471 -3.0351,1.0172 -4.616,1.0172 -2.1039,0 -3.9854,-0.51888 -5.6323,-1.5515 -1.6469,-1.0377 -2.9569,-2.5601 -3.9158,-4.5551 -0.96767,-1.9899 -1.4437,-4.3822 -1.4437,-7.1786 0,-2.8273 0.48471,-5.288 1.4558,-7.3978 0.96248,-2.0943 2.2342,-3.6458 3.7995,-4.6459 1.5653,-0.99322 3.419,-1.4881 5.5559,-1.4881 1.5827,0 2.9621,0.28769 4.1469,0.86479 1.1813,0.57367 2.1612,1.3956 2.9204,2.4574 0.76791,1.0532 1.3429,2.5173 1.7234,4.3667 l -2.5729,0.84595 c -0.34051,-1.4556 -0.77657,-2.5567 -1.2995,-3.2742 -0.52987,-0.72608 -1.2213,-1.2929 -2.0882,-1.7073 -0.85823,-0.41955 -1.8242,-0.62162 -2.9048,-0.62162 -1.5618,0 -2.9135,0.37845 -4.0427,1.1285 -1.124,0.74663 -2.0344,1.9111 -2.7276,3.49 -0.68448,1.584 -1.0233,3.502 -1.0233,5.7864 0,3.4694 0.72794,6.0741 2.1925,7.7968 1.4802,1.7227 3.3947,2.5875 5.7487,2.5875 1.124,0 2.2706,-0.26716 3.4468,-0.78944 1.1814,-0.53772 2.116,-1.1645 2.8127,-1.8906 l 0,-4.8291 -6.3359,0 0,-3.0584 9.133,-0.02392 z"
         inkscape:connector-curvature="0"
         style="fill:#0c0e0f;stroke:#000000;stroke-width:0.33333001" /><path
         id="path74"
         d="m 215.46,-41.722 c 0.7453,1.2124 1.1084,2.7005 1.1084,4.4661 0,2.3324 -0.59936,4.2435 -1.8085,5.711 -1.2022,1.4761 -3.2939,2.209 -6.2543,2.209 l -5.5264,0 0,10.54 -2.8526,0 0,-25.918 8.1236,0 c 1.9145,0 3.3252,0.16268 4.2355,0.4949 1.2387,0.45038 2.2342,1.2843 2.9742,2.4968 z m -3.0507,8.1513 c 0.81652,-0.77401 1.2178,-1.9625 1.2178,-3.5413 0,-1.0292 -0.18938,-1.8991 -0.59417,-2.6286 -0.4013,-0.73465 -0.88602,-1.233 -1.4558,-1.5121 -0.56635,-0.26714 -1.5948,-0.40241 -3.0715,-0.40241 l -5.5264,0 0,9.2643 5.575,0 c 1.7686,0.0015 3.0472,-0.39386 3.8551,-1.1799 z"
         inkscape:connector-curvature="0"
         style="fill:#0c0e0f;stroke:#000000;stroke-width:0.33333001" /><path
         id="path76"
         d="m 196.26,-26.14 c 0,1.4796 -0.35266,2.8358 -1.0598,4.0482 -0.70882,1.2244 -1.6626,2.1491 -2.8769,2.7845 -1.2213,0.63874 -2.6737,0.95725 -4.3867,0.95725 -2.6702,0 -4.7949,-0.79287 -6.3759,-2.3735 -1.5896,-1.584 -2.4114,-3.7212 -2.4635,-6.4131 l 2.6911,-0.28768 c 0.14066,1.4316 0.46905,2.5396 0.97461,3.3256 0.50208,0.80486 1.2387,1.4436 2.1803,1.9265 0.94337,0.47778 2.0031,0.72951 3.1914,0.72951 1.6991,0 3.0107,-0.41442 3.9489,-1.2364 0.93815,-0.80999 1.4124,-1.87 1.4124,-3.1749 0,-0.76546 -0.17026,-1.435 -0.51425,-2.0104 -0.33529,-0.56683 -0.85821,-1.0292 -1.5375,-1.3991 -0.68798,-0.35961 -2.1733,-0.88534 -4.4579,-1.5549 -2.0274,-0.58223 -3.4798,-1.1884 -4.345,-1.7827 -0.85299,-0.60963 -1.5253,-1.3682 -2.0066,-2.293 -0.48123,-0.92472 -0.71229,-1.9693 -0.71229,-3.1304 0,-2.1063 0.6845,-3.8239 2.0587,-5.1493 1.376,-1.3323 3.2244,-2.0018 5.5594,-2.0018 1.6018,0 2.9986,0.31851 4.2112,0.93328 1.197,0.62675 2.1317,1.5241 2.7918,2.692 0.6671,1.1679 1.0198,2.5396 1.0719,4.1236 l -2.7467,0.24316 c -0.14591,-1.6868 -0.65149,-2.9351 -1.534,-3.752 -0.87735,-0.80999 -2.1195,-1.2124 -3.7022,-1.2124 -1.6191,0 -2.8526,0.35448 -3.7022,1.072 -0.84086,0.70553 -1.2665,1.632 -1.2665,2.7605 0,1.048 0.31099,1.8631 0.93121,2.4368 0.61848,0.58567 2.0222,1.1559 4.1956,1.7553 2.1247,0.59079 3.6206,1.0891 4.4788,1.5121 1.3151,0.66957 2.3141,1.5309 2.9812,2.6115 0.6706,1.0771 1.0094,2.3563 1.0094,3.8599 z"
         inkscape:connector-curvature="0"
         style="fill:#0c0e0f;stroke:#000000;stroke-width:0.33333001" /><path
         id="path78"
         d="m 124.42,-93.241 c 23.883,0 43.236,19.358 43.236,43.233 0,23.887 -19.353,43.245 -43.236,43.245 -18.489,0 -34.27,-11.619 -40.448,-27.949 -6.046,16.582 -21.957,28.419 -40.63,28.419 -23.88,0 -43.238,-19.358 -43.238,-43.238 0,-23.88 19.358,-43.24 43.238,-43.24 18.491,0 34.27,11.616 40.45,27.949 6.044,-16.579 21.957,-28.419 40.628,-28.419 z m 29.123,15.375 -0.47,-1.078 -4.18,0 1.365,3.149 2.208,0 1.077,-2.071 z m -3.894,38.701 -0.147,-3.899 -2.019,-1.078 -2.205,0 0,-1.553 -4.227,-3.428 -5.92,0 -0.608,1.083 -2.49,-0.14 -1.737,-2.21 0.61,-2.019 -1.407,0 0,1.081 -1.365,-1.081 -1.127,-4.041 5.026,0.147 1.409,2.485 0.752,-0.137 -1.083,-2.82 1.693,-2.019 -0.282,-1.551 0,-1.409 1.409,0 1.549,-3.149 2.823,0 -0.801,-0.752 -2.487,0 -0.801,-1.593 6.574,0 -2.21,-4.509 -1.688,0 0.333,1.076 -3.291,0 -1.409,-2.955 -2.816,0 1.404,2.816 -1.549,2.632 -0.939,-1.549 -1.882,0 -1.404,-2.345 1.078,-3.246 3.617,0 -1.127,-2.681 -0.748,0 -0.941,1.274 -1.553,-3.004 -1.409,0 -3.617,1.875 -5.443,-1.078 -2.82,1.409 -10.431,-0.801 -2.345,1.879 0.941,2.82 -1.411,0 0.47,0.796 1.078,0 -0.796,1.083 0.796,1.407 2.35,0 -3.612,2.492 1.125,0 4.362,-2.164 2.171,-1.735 3.142,-0.326 2.632,1.733 0.936,3.573 1.553,1.875 -0.14,2.82 1.074,3.288 2.49,4.511 0.801,0 -2.208,-4.511 1.882,0 3.142,6.055 7.939,5.967 1.409,0 -1.078,3.242 1.078,3.612 3.291,2.494 -2.82,12.963 1.078,2.487 2.534,1.081 -0.792,-4.18 2.816,-2.676 0,-2.021 2.161,0 1.593,-2.205 3.899,-2.774 0,-2.674 2.165,-1.743 z m -1.223,-41.191 -4.229,-5.119 -2.823,-2.063 0,2.063 -8.263,0 1.083,2.49 2.019,0 1.879,3.244 1.409,0 3.617,6.572 1.078,0 1.411,-4.371 2.819,-2.816 z m -8.454,6.719 -1.549,-3.288 -1.414,0 -2.208,-4.176 -2.487,0 -0.608,-0.801 -2.636,0 1.22,2.161 3.617,0 1.223,2.201 -2.485,0 0.796,1.744 1.831,0 0.941,2.159 3.759,0 z m -0.75,22.639 0,-0.615 -2.823,-0.796 -1.595,0 0,0.796 1.595,0 2.823,0.615 z m -18.512,13.524 0,-8.407 -1.64,0 0,8.407 1.64,0 z m -2.816,0 0,-0.233 c -0.189,-0.098 -0.375,-0.191 -0.375,-0.99 l 0,-3.337 c 0,-1.593 -1.595,-1.872 -2.485,-1.872 -1.276,0 -2.587,0.279 -2.776,2.203 l 1.549,0 c 0.047,-0.331 0.189,-0.894 1.039,-0.894 0.422,0 1.078,0.051 1.078,0.755 0,0.375 -0.331,0.426 -0.564,0.475 l -1.507,0.277 c -1.029,0.14 -1.828,0.75 -1.828,1.97 0,1.269 0.99,1.926 1.926,1.926 1.127,0 1.642,-0.657 2.019,-1.027 0.04,0.37 0.04,0.466 0.142,0.748 l 1.782,0 z m -6.234,-10.228 0,-3.966 -9.066,0 0,-1.952 7.331,0 0,-3.682 -7.331,0 0,-1.672 8.691,0 0,-3.873 -14.914,0 0,15.145 15.289,0 z m -0.762,10.228 0,-4.322 c 0,-1.362 -0.939,-2.11 -2.161,-2.11 -1.218,0 -1.691,0.748 -1.924,1.125 l 0,-0.941 -1.6,0 0,6.248 1.644,0 0,-3.57 c 0,-0.934 0.612,-1.407 1.32,-1.407 1.025,0 1.074,0.703 1.074,1.174 l 0,3.803 1.647,0 z m -10.007,0.279 c 1.691,0 3.195,-1.125 3.195,-3.377 0,-2.21 -1.504,-3.293 -3.195,-3.293 l 0,-0.042 c -1.691,0 -3.191,1.078 -3.191,3.335 10e-4,2.253 1.5,3.377 3.191,3.377 z m -4.457,-0.279 0,-6.248 -1.647,0 0,6.248 1.647,0 z m 0,-6.998 0,-1.504 -1.647,0 0,1.504 1.647,0 z m -2.725,7.093 0,-1.318 c -0.144,0.047 -0.242,0.047 -0.377,0.047 -0.661,0 -0.661,-0.14 -0.661,-0.51 l 0,-3.386 1.039,0 0,-1.176 -1.039,0 0,-1.691 -1.642,0 0,1.691 -0.848,0 0,1.176 0.848,0 0,3.805 c 0,0.843 0.24,1.407 1.642,1.407 l 0.238,0 c 0.281,0 0.513,-0.045 0.8,-0.045 z m -6.658,-15.223 c 5.254,0 7.588,-1.973 7.588,-5.082 0,-2.962 -2.534,-4.872 -7.785,-4.872 l -8.799,0 0,14.451 5.985,0 0,-4.497 3.011,0 z m 2.62,15.128 0,-0.233 c -0.191,-0.098 -0.384,-0.191 -0.384,-0.99 l 0,-3.337 c 0,-1.593 -1.593,-1.872 -2.485,-1.872 -0.044,0 -0.093,0.042 -0.186,0.042 -1.223,0 -2.441,0.333 -2.578,2.161 l 1.544,0 c 0.049,-0.331 0.186,-0.894 1.034,-0.894 l 0,0.051 c 0.419,0 1.078,0.047 1.078,0.703 0,0.375 -0.324,0.426 -0.559,0.475 l -0.519,0.091 -0.985,0.186 c -1.034,0.14 -1.83,0.75 -1.83,1.97 0,1.269 0.983,1.926 1.924,1.926 0.331,0 0.657,-0.042 0.892,-0.14 0.519,-0.235 0.845,-0.605 1.127,-0.887 0.044,0.37 0.044,0.466 0.144,0.748 l 1.783,0 z m -6.952,0 0,-4.322 c 0,-1.362 -0.943,-2.11 -2.159,-2.11 -1.223,0 -1.693,0.748 -1.928,1.125 l 0,-0.941 -1.596,0 0,6.248 1.642,0 0,-3.57 c 0,-0.934 0.612,-1.407 1.313,-1.407 1.036,0 1.078,0.703 1.078,1.174 l 0,3.803 1.65,0 z m -6.626,-4.739 0,-1.693 -0.328,0 c -0.985,0 -1.407,0.657 -1.733,1.265 l 0,-1.081 -1.598,0 0,6.248 1.64,0 0,-3.244 c 0,-0.699 0.235,-1.495 1.551,-1.495 l 0.468,0 z M 75.73,-52.502 c 0,-0.741 -0.214,-1.444 -0.64,-2.084 -0.363,-0.543 -0.939,-1.027 -1.814,-1.523 -0.808,-0.429 -2.315,-0.852 -4.211,-1.185 -0.226,-0.077 -0.438,-0.126 -0.629,-0.17 -0.156,-0.035 -0.289,-0.068 -0.419,-0.114 -0.021,-0.005 -0.24,-0.056 -0.34,-0.051 -1.614,-0.289 -2.187,-0.734 -2.187,-1.025 0,-0.24 0.142,-0.461 0.384,-0.589 0.27,-0.177 0.81,-0.203 1.251,-0.203 0.561,0 1.181,0.037 1.523,0.296 l 0.051,0.026 c 0.389,0.147 0.526,0.587 0.578,0.836 l 0.03,0.163 5.88,0 -0.021,-0.219 c -0.14,-1.493 -0.953,-2.746 -2.35,-3.624 -1.297,-0.822 -3.232,-1.255 -5.599,-1.255 -2.387,0 -4.304,0.438 -5.701,1.302 -1.407,0.955 -2.063,2.112 -2.063,3.642 0,0.771 0.151,1.465 0.47,2.098 0.282,0.354 0.871,1.011 1.66,1.463 0.412,0.207 1.043,0.445 1.761,0.664 0.822,0.312 2.094,0.564 3.263,0.766 0.205,0 0.37,0.044 0.72,0.184 1.714,0.296 2.324,0.762 2.324,1.071 0,0.224 -0.161,0.482 -0.505,0.573 -0.377,0.191 -0.969,0.305 -1.551,0.305 -0.722,0 -1.383,-0.13 -1.726,-0.342 -0.345,-0.217 -0.594,-0.564 -0.762,-1.069 l -0.049,-0.137 -5.995,0 0.016,0.217 c 0.14,1.649 0.983,3.004 2.45,3.915 1.509,0.859 3.472,1.295 5.829,1.295 2.529,0 4.6,-0.436 6.165,-1.297 1.424,-0.923 2.207,-2.318 2.207,-3.929 z m -12.22,-23.624 10.003,0 -1.409,-0.61 -3.903,-0.189 -1.402,-0.941 -9.397,-0.47 -0.47,-1.074 -11.839,0 -1.733,-2.492 -13.246,0 -3.149,4.977 -3.566,0 -1.549,4.085 -2.82,-1.879 1.691,0 -1.081,-2.487 -3.57,0 -4.553,6.06 -0.142,2.205 0.796,1.409 0.755,-1.127 1.078,2.21 1.127,-2.492 -0.796,-1.078 2.205,-4.225 0.612,1.404 -1.083,2.82 0.755,1.36 2.487,-0.282 0,1.693 -3.57,2.203 -2.816,0 -1.083,-1.735 -0.326,0.659 0.654,1.218 -0.794,0 -1.081,2.492 -3.616,0 1.267,2.068 0,1.828 -2.958,0 0.282,0.939 -0.282,2.352 1.879,1.267 -3.756,3.752 0,6.064 2.35,2.816 5.915,-0.61 1.076,1.411 -0.934,1.078 2.017,4.509 -1.362,4.697 3.57,5.778 3.57,0 1.879,-4.227 0.328,-2.634 2.159,-3.614 -0.279,-2.485 3.428,-2.825 1.879,-3.568 -3.617,0 -2.49,-2.96 -1.879,-5.305 2.205,0.282 3.291,6.109 3.896,-2.019 -0.657,-0.801 -1.081,0 -2.632,-5.308 1.879,0 1.833,3.894 2.348,0 1.127,3.619 2.636,4.979 3.093,-5.776 1.598,0 0.615,1.551 0,6.386 0.796,1.742 1.078,1.404 0,-2.017 -1.078,-1.551 0,-4.555 1.407,3.288 2.49,-1.553 0,-2.205 -1.74,-2.82 3.151,-1.688 1.407,-1.269 0.284,-2.816 -2.35,-2.161 0.659,-2.21 1.831,0 1.411,2.676 0.796,-1.402 -1.081,-1.274 1.081,-3.708 1.735,0 2.776,-4.697 -1.411,-0.14 2.816,-5.308 5.03,-3.004 -1.742,2.348 0.47,2.066 3.568,-4.7 -0.746,-1.407 z m 7.837,36.02 0,-0.373 c 0,-2.771 -1.733,-3.428 -2.953,-3.428 -2.771,0 -3.009,2.438 -3.009,3.193 0,2.536 1.365,3.519 3.102,3.519 1.078,0 2.35,-0.61 2.771,-2.061 l -1.693,0 c -0.142,0.422 -0.608,0.606 -1.078,0.606 -1.316,0 -1.409,-0.98 -1.451,-1.456 l 4.311,0 z m -7.089,20.951 1.269,-2.024 -1.737,0 -1.081,2.024 1.549,0 z m 0.563,-18.224 0,-1.318 c -0.14,0.047 -0.233,0.047 -0.373,0.047 -0.659,0 -0.659,-0.14 -0.659,-0.51 l 0,-3.386 1.032,0 0,-1.176 -1.032,0 0,-1.691 -1.643,0 0,1.691 -0.843,0 0,1.176 0.843,0 0,3.805 c 0,0.843 0.238,1.407 1.644,1.407 l 0.233,0 c 0.284,0 0.519,-0.045 0.798,-0.045 z m -2.112,22.919 0.801,-1.735 -0.801,0 0.47,-1.411 -1.218,0 -1.742,3.146 2.49,0 z m -4.648,-15.783 3.568,0 -2.21,-1.404 -0.89,-1.083 -3.947,0 2.541,1.083 0.938,1.404 z m 2.487,8.268 -2.49,-3.896 -1.404,-3.901 -1.742,3.901 -2.958,-1.081 0,-1.127 -1.737,0.331 -0.752,0.466 -1.081,-0.466 -1.13,2.674 -3.426,2.021 0.331,4.364 1.407,1.083 5.452,-1.553 2.485,0.47 1.74,1.879 2.157,0 2.019,-2.35 1.129,-2.815 z m -0.137,-15.499 0,-4.322 c 0,-1.362 -0.943,-2.11 -2.164,-2.11 -1.22,0 -1.686,0.748 -1.926,1.125 l 0,-0.941 -1.593,0 0,6.248 1.64,0 0,-3.57 c 0,-0.934 0.612,-1.407 1.318,-1.407 1.032,0 1.078,0.703 1.078,1.174 l 0,3.803 1.647,0 z m -4.558,-23.529 -0.941,-1.553 -0.796,1.553 0,3.146 -1.365,2.159 -1.404,0 0.277,0.796 2.212,0 1.688,-2.955 -1.081,-3.146 1.41,0 z m -4.229,29.025 1.879,-1.083 -2.485,0.331 -1.083,-0.331 -0.189,2.21 1.125,0 0.147,-0.473 1.733,0.473 -1.127,-1.127 z m 1.597,-5.496 0,-8.407 -1.784,0 0,8.407 1.784,0 z m -4.087,3.335 -0.75,-0.801 -2.066,2.21 -0.752,0.47 0.61,1.407 2.49,0 0.468,-3.286 z m -4.695,2.962 0,-1.272 -3.899,-4.977 0,1.551 3.899,4.698 z m -6.854,-9.676 -0.615,-1.083 -0.796,1.409 0.468,1.078 0.943,-1.404 z m -9.208,8.875 -2.159,-2.774 -2.818,4.977 1.691,2.823 3.286,-5.026 z m -18.741,-31.517 0,-1.409 -0.75,-1.875 0.14,-1.083 -1.218,0 0.468,2.21 -0.799,0.277 0,1.083 0.468,0.331 -0.468,0.466 2.159,0 z m -3.239,-1.551 0.468,-1.733 -1.125,0 -0.47,1.733 1.127,0 z"
         inkscape:connector-curvature="0"
         style="fill:#0c0e0f" /><polygon
         id="polygon80"
         points="155.88,91.901 154.8,93.971 152.59,93.971 151.23,90.823 155.41,90.823 "
         transform="translate(-2.3355,-169.77)"
         style="fill:#ffffff" /><polygon
         id="polygon82"
         points="132.49,91.756 133.24,91.756 134.37,94.437 130.75,94.437 129.67,97.683 131.08,100.03 132.96,100.03 133.9,101.58 135.44,98.946 134.04,96.13 136.86,96.13 138.27,99.085 141.56,99.085 141.22,98.01 142.91,98.01 145.12,102.52 138.55,102.52 139.35,104.11 141.84,104.11 142.64,104.86 139.81,104.86 138.27,108.01 136.86,108.01 136.86,109.42 137.14,110.97 135.44,112.99 136.53,115.81 135.78,115.95 134.37,113.46 129.34,113.32 130.47,117.36 131.83,118.44 131.83,117.36 133.24,117.36 132.63,119.38 134.37,121.59 136.86,121.73 137.46,120.64 143.38,120.64 147.61,124.07 147.61,125.62 149.82,125.62 151.84,126.7 151.98,130.6 149.82,132.34 149.82,135.02 145.92,137.79 144.32,140 142.16,140 142.16,142.02 139.35,144.69 140.14,148.87 137.61,147.79 136.53,145.3 139.35,132.34 136.06,129.85 134.98,126.24 136.06,122.99 134.65,122.99 126.71,117.03 123.57,110.97 121.69,110.97 123.89,115.48 123.09,115.48 120.6,110.97 119.53,107.68 119.67,104.86 118.12,102.99 117.18,99.416 114.55,97.683 111.41,98.01 109.24,99.745 104.87,101.91 103.75,101.91 107.36,99.416 105.01,99.416 104.22,98.01 105.01,96.927 103.93,96.927 103.46,96.13 104.87,96.13 103.93,93.31 106.28,91.43 116.71,92.232 119.53,90.823 124.97,91.901 128.59,90.026 130,90.026 131.55,93.03 "
         transform="translate(-2.3355,-169.77)"
         style="fill:#ffffff" /><polygon
         id="polygon84"
         points="145.45,96.598 141.84,90.026 140.43,90.026 138.55,86.782 136.53,86.782 135.44,84.292 143.71,84.292 143.71,82.229 146.53,84.292 150.76,89.411 147.94,92.227 146.53,96.598 "
         transform="translate(-2.3355,-169.77)"
         style="fill:#ffffff" /><polygon
         id="polygon86"
         points="134.04,87.865 134.65,88.666 137.14,88.666 139.34,92.842 140.76,92.842 142.31,96.13 138.55,96.13 137.61,93.971 135.78,93.971 134.98,92.227 137.46,92.227 136.24,90.026 132.62,90.026 131.4,87.865 "
         transform="translate(-2.3355,-169.77)"
         style="fill:#ffffff" /><polygon
         id="polygon88"
         points="137.14,117.36 138.73,117.36 141.56,118.15 141.56,118.77 138.73,118.15 137.14,118.15 "
         transform="translate(-2.3355,-169.77)"
         style="fill:#ffffff" /><rect
         id="rect90"
         height="8.4069996"
         width="1.64"
         y="-45.881001"
         x="119.07"
         style="fill:#ffffff" /><path
         id="path92"
         d="m 117.89,-37.707 0,0.233 -1.782,0 c -0.102,-0.282 -0.102,-0.377 -0.142,-0.748 -0.377,0.37 -0.892,1.027 -2.019,1.027 -0.936,0 -1.926,-0.657 -1.926,-1.926 0,-1.22 0.799,-1.83 1.828,-1.97 l 1.507,-0.277 c 0.233,-0.049 0.564,-0.1 0.564,-0.475 0,-0.703 -0.657,-0.755 -1.078,-0.755 -0.85,0 -0.992,0.564 -1.039,0.894 l -1.549,0 c 0.189,-1.924 1.5,-2.203 2.776,-2.203 0.89,0 2.485,0.279 2.485,1.872 l 0,3.337 c 0,0.8 0.187,0.893 0.375,0.991 z m -1.97,-1.977 0,-0.843 c -0.142,0.14 -0.424,0.279 -1.132,0.377 -0.608,0.095 -1.127,0.231 -1.127,0.936 0,0.564 0.475,0.755 0.806,0.755 l 0.326,0 c 0.144,-0.035 0.268,-0.107 0.396,-0.172 0.014,-0.007 0.026,-0.012 0.04,-0.019 0.021,-0.012 0.044,-0.023 0.063,-0.035 0.042,-0.026 0.079,-0.051 0.116,-0.079 0.019,-0.014 0.037,-0.028 0.054,-0.044 0.123,-0.1 0.238,-0.21 0.317,-0.349 0.005,-0.007 0.009,-0.014 0.014,-0.023 0.074,-0.152 0.127,-0.313 0.127,-0.504 z"
         inkscape:connector-curvature="0"
         style="fill:#ffffff" /><path
         id="path94"
         d="m 115.92,-40.527 0,0.843 c 0,0.191 -0.054,0.352 -0.128,0.503 -0.005,0.009 -0.009,0.016 -0.014,0.023 -0.079,0.14 -0.193,0.249 -0.317,0.349 -0.075,0.058 -0.149,0.114 -0.233,0.158 -0.014,0.007 -0.026,0.012 -0.04,0.019 -0.226,0.109 -0.475,0.172 -0.722,0.172 -0.331,0 -0.806,-0.191 -0.806,-0.755 0,-0.706 0.519,-0.841 1.127,-0.936 0.709,-0.097 0.991,-0.236 1.133,-0.376 z"
         inkscape:connector-curvature="0"
         style="fill:#0c0e0f" /><path
         id="path96"
         d="m 115.46,-38.808 c -0.016,0.016 -0.035,0.03 -0.054,0.044 -0.037,0.028 -0.075,0.054 -0.116,0.079 -0.019,0.012 -0.042,0.023 -0.063,0.035 0.084,-0.044 0.159,-0.1 0.233,-0.158 z"
         inkscape:connector-curvature="0"
         style="fill:#ffffff" /><path
         id="path98"
         d="m 115.29,-38.685 c 0.042,-0.026 0.079,-0.051 0.116,-0.079 -0.036,0.028 -0.074,0.053 -0.116,0.079 z"
         inkscape:connector-curvature="0"
         style="fill:#ffffff" /><path
         id="path100"
         d="m 115.19,-38.631 c -0.128,0.065 -0.252,0.137 -0.396,0.172 l -0.326,0 c 0.247,0 0.496,-0.063 0.722,-0.172 z"
         inkscape:connector-curvature="0"
         style="fill:#ffffff" /><polygon
         id="polygon102"
         points="113.62,106.92 113.62,110.79 104.93,110.79 104.93,112.46 112.26,112.46 112.26,116.15 104.93,116.15 104.93,118.1 113.99,118.1 113.99,122.06 98.705,122.06 98.705,106.92 "
         transform="translate(-2.3355,-169.77)"
         style="fill:#ffffff" /><path
         id="path104"
         d="m 110.9,-41.796 0,4.322 -1.647,0 0,-3.803 c 0,-0.47 -0.049,-1.174 -1.074,-1.174 -0.708,0 -1.32,0.473 -1.32,1.407 l 0,3.57 -1.644,0 0,-6.248 1.6,0 0,0.941 c 0.233,-0.377 0.706,-1.125 1.924,-1.125 1.223,0 2.161,0.747 2.161,2.11 z"
         inkscape:connector-curvature="0"
         style="fill:#ffffff" /><path
         id="path106"
         d="m 104.08,-40.571 c 0,2.252 -1.504,3.377 -3.195,3.377 -1.691,0 -3.191,-1.125 -3.191,-3.377 0,-2.257 1.5,-3.335 3.191,-3.335 l 0,0.042 c 1.691,0 3.195,1.082 3.195,3.293 z m -1.69,0 c 0,-0.799 -0.233,-1.835 -1.504,-1.835 l 0,-0.044 c -1.267,0 -1.5,1.034 -1.5,1.879 0,0.796 0.233,1.875 1.5,1.875 1.271,-0.001 1.504,-1.079 1.504,-1.875 z"
         inkscape:connector-curvature="0"
         style="fill:#ffffff" /><path
         id="path108"
         d="m 100.89,-42.407 c 1.272,0 1.504,1.036 1.504,1.835 0,0.796 -0.233,1.875 -1.504,1.875 -1.267,0 -1.5,-1.078 -1.5,-1.875 0,-0.845 0.233,-1.879 1.5,-1.879 l 0,0.044 z"
         inkscape:connector-curvature="0"
         style="fill:#0c0e0f" /><rect
         id="rect110"
         height="6.2480001"
         width="1.647"
         y="-43.722"
         x="94.786003"
         style="fill:#ffffff" /><rect
         id="rect112"
         height="1.5039999"
         width="1.647"
         y="-45.977001"
         x="94.786003"
         style="fill:#ffffff" /><path
         id="path114"
         d="m 93.708,-38.697 0,1.318 c -0.286,0 -0.519,0.044 -0.801,0.044 l -0.238,0 c -1.402,0 -1.642,-0.564 -1.642,-1.407 l 0,-3.805 -0.848,0 0,-1.176 0.848,0 0,-1.691 1.642,0 0,1.691 1.039,0 0,1.176 -1.039,0 0,3.386 c 0,0.37 0,0.51 0.661,0.51 0.136,0.001 0.234,0.001 0.378,-0.046 z"
         inkscape:connector-curvature="0"
         style="fill:#ffffff" /><path
         id="path116"
         d="m 94.637,-57.684 c 0,3.109 -2.334,5.082 -7.588,5.082 l -3.011,0 0,4.497 -5.985,0 0,-14.451 8.799,0 c 5.251,0 7.785,1.91 7.785,4.872 z m -8.114,1.709 c 1.395,0 2.41,-0.44 2.41,-1.686 0,-1.346 -1.931,-1.525 -3.195,-1.525 l -1.7,0 0,3.212 2.485,0 z"
         inkscape:connector-curvature="0"
         style="fill:#ffffff" /><path
         id="path118"
         d="m 89.67,-37.707 0,0.233 -1.784,0 c -0.1,-0.282 -0.1,-0.377 -0.144,-0.748 -0.282,0.282 -0.608,0.652 -1.127,0.887 -0.235,0.098 -0.561,0.14 -0.892,0.14 -0.941,0 -1.924,-0.657 -1.924,-1.926 0,-1.22 0.796,-1.83 1.83,-1.97 l 0.985,-0.186 0.519,-0.091 c 0.235,-0.049 0.559,-0.1 0.559,-0.475 0,-0.657 -0.659,-0.703 -1.078,-0.703 l 0,-0.051 c -0.848,0 -0.985,0.564 -1.034,0.894 l -1.544,0 c 0.137,-1.828 1.355,-2.161 2.578,-2.161 0.093,0 0.142,-0.042 0.186,-0.042 0.892,0 2.485,0.279 2.485,1.872 l 0,3.337 c 0,0.799 0.194,0.892 0.385,0.99 z m -1.978,-1.977 0,-0.843 c -0.135,0.14 -0.422,0.279 -1.125,0.377 -0.608,0.095 -1.13,0.231 -1.13,0.936 0,0.564 0.47,0.755 0.799,0.755 0.142,0 0.286,0 0.377,-0.044 0.021,-0.005 0.037,-0.014 0.058,-0.023 0.007,-0.005 0.014,-0.007 0.021,-0.009 0.068,-0.016 0.133,-0.047 0.198,-0.079 0.072,-0.028 0.142,-0.063 0.203,-0.105 0.075,-0.044 0.147,-0.093 0.207,-0.154 0.063,-0.051 0.109,-0.112 0.154,-0.177 0.044,-0.054 0.088,-0.107 0.123,-0.17 0.069,-0.143 0.115,-0.292 0.115,-0.464 z"
         inkscape:connector-curvature="0"
         style="fill:#ffffff" /><path
         id="path120"
         d="m 88.934,-57.661 c 0,1.246 -1.015,1.686 -2.41,1.686 l -2.485,0 0,-3.212 1.7,0 c 1.264,10e-4 3.195,0.18 3.195,1.526 z"
         inkscape:connector-curvature="0"
         style="fill:#0c0e0f" /><path
         id="path122"
         d="m 87.692,-40.527 0,0.843 c 0,0.172 -0.047,0.321 -0.114,0.463 -0.035,0.063 -0.079,0.116 -0.123,0.17 -0.044,0.065 -0.091,0.126 -0.154,0.177 -0.061,0.061 -0.133,0.109 -0.207,0.154 -0.061,0.042 -0.13,0.077 -0.203,0.105 -0.065,0.033 -0.13,0.063 -0.198,0.079 -0.149,0.044 -0.305,0.077 -0.456,0.077 -0.328,0 -0.799,-0.191 -0.799,-0.755 0,-0.706 0.522,-0.841 1.13,-0.936 0.703,-0.098 0.989,-0.237 1.124,-0.377 z"
         inkscape:connector-curvature="0"
         style="fill:#0c0e0f" /><path
         id="path124"
         d="m 86.693,-38.536 c -0.007,0.002 -0.014,0.005 -0.021,0.009 -0.021,0.007 -0.037,0.019 -0.058,0.023 -0.091,0.044 -0.235,0.044 -0.377,0.044 0.151,10e-4 0.307,-0.032 0.456,-0.076 z"
         inkscape:connector-curvature="0"
         style="fill:#ffffff" /><path
         id="path126"
         d="m 86.614,-38.503 c 0.021,-0.005 0.037,-0.016 0.058,-0.023 -0.021,0.009 -0.037,0.018 -0.058,0.023 z"
         inkscape:connector-curvature="0"
         style="fill:#0c0e0f" /><path
         id="path128"
         d="m 82.718,-41.796 0,4.322 -1.649,0 0,-3.803 c 0,-0.47 -0.042,-1.174 -1.078,-1.174 -0.701,0 -1.313,0.473 -1.313,1.407 l 0,3.57 -1.643,0 0,-6.248 1.595,0 0,0.941 c 0.235,-0.377 0.706,-1.125 1.928,-1.125 1.217,0 2.16,0.747 2.16,2.11 z"
         inkscape:connector-curvature="0"
         style="fill:#ffffff" /><path
         id="path130"
         d="m 76.092,-43.906 0,1.693 -0.468,0 c -1.316,0 -1.551,0.796 -1.551,1.495 l 0,3.244 -1.64,0 0,-6.248 1.598,0 0,1.081 c 0.326,-0.608 0.748,-1.265 1.733,-1.265 l 0.328,0 z"
         inkscape:connector-curvature="0"
         style="fill:#ffffff" /><path
         id="path132"
         d="m 75.088,-54.587 c 0.426,0.64 0.64,1.344 0.64,2.084 0,1.612 -0.783,3.007 -2.205,3.926 -1.565,0.862 -3.635,1.297 -6.165,1.297 -2.357,0 -4.32,-0.436 -5.829,-1.295 -1.467,-0.911 -2.31,-2.266 -2.45,-3.915 l -0.016,-0.217 5.995,0 0.049,0.137 c 0.168,0.505 0.417,0.852 0.762,1.069 0.342,0.212 1.004,0.342 1.726,0.342 0.582,0 1.174,-0.114 1.551,-0.305 0.345,-0.091 0.505,-0.349 0.505,-0.573 0,-0.31 -0.61,-0.776 -2.324,-1.071 -0.349,-0.14 -0.515,-0.184 -0.72,-0.184 -1.169,-0.203 -2.441,-0.454 -3.263,-0.766 -0.717,-0.219 -1.348,-0.456 -1.761,-0.664 -0.789,-0.452 -1.379,-1.109 -1.66,-1.463 -0.319,-0.633 -0.47,-1.327 -0.47,-2.098 0,-1.53 0.657,-2.688 2.063,-3.642 1.397,-0.864 3.314,-1.302 5.701,-1.302 2.366,0 4.301,0.433 5.599,1.255 1.397,0.878 2.21,2.131 2.35,3.624 l 0.021,0.219 -5.88,0 -0.03,-0.163 c -0.051,-0.249 -0.189,-0.689 -0.578,-0.836 l -0.051,-0.026 c -0.342,-0.259 -0.962,-0.296 -1.523,-0.296 -0.44,0 -0.98,0.026 -1.251,0.203 -0.242,0.128 -0.384,0.349 -0.384,0.589 0,0.291 0.573,0.736 2.187,1.025 0.1,-0.005 0.319,0.047 0.34,0.051 0.13,0.047 0.263,0.079 0.419,0.114 0.191,0.044 0.403,0.093 0.629,0.17 1.896,0.333 3.403,0.757 4.211,1.185 0.874,0.499 1.449,0.984 1.812,1.526 z"
         inkscape:connector-curvature="0"
         style="fill:#ffffff" /><path
         id="path134"
         d="m 73.512,-76.126 -10.003,0 0.748,1.407 -3.568,4.7 -0.47,-2.066 1.742,-2.348 -5.03,3.004 -2.816,5.308 1.411,0.14 -2.776,4.697 -1.735,0 -1.081,3.708 1.081,1.274 -0.796,1.402 -1.411,-2.676 -1.831,0 -0.659,2.21 2.35,2.161 -0.284,2.816 -1.407,1.269 -3.151,1.688 1.74,2.82 0,2.205 -2.49,1.553 -1.407,-3.288 0,4.555 1.078,1.551 0,2.017 -1.078,-1.404 -0.796,-1.742 0,-6.386 -0.615,-1.551 -1.598,0 -3.093,5.776 -2.636,-4.979 -1.127,-3.619 -2.348,0 -1.833,-3.894 -1.879,0 2.632,5.308 1.081,0 0.657,0.801 -3.896,2.019 -3.291,-6.109 -2.205,-0.282 1.879,5.305 2.49,2.96 3.617,0 -1.879,3.568 -3.428,2.825 0.279,2.485 -2.159,3.614 -0.328,2.634 -1.879,4.227 -3.57,0 -3.57,-5.778 1.362,-4.697 -2.017,-4.509 0.934,-1.078 -1.076,-1.411 -5.915,0.61 -2.35,-2.816 0,-6.064 3.756,-3.752 5.778,-0.326 0.282,1.404 3.899,1.081 0,-1.081 3.896,0 1.13,-2.487 -3.288,0 -0.331,-2.21 5.447,0 -1.549,-2.49 -2.818,0 -2.159,3.291 -2.021,-3.568 -1.127,0 1.409,3.239 -1.409,1.737 0,-1.737 -1.078,-2.774 -2.962,1.083 -0.939,2.816 -2.159,2.021 -1.879,-1.267 0.282,-2.352 -0.282,-0.939 2.958,0 0,-1.828 -1.267,-2.068 3.617,0 1.081,-2.492 0.796,0 -0.654,-1.218 0.326,-0.659 1.083,1.735 2.816,0 3.57,-2.203 0,-1.693 -2.487,0.282 -0.755,-1.36 1.083,-2.82 -0.612,-1.404 -2.205,4.225 0.796,1.078 -1.127,2.492 -1.078,-2.21 -0.755,1.127 -0.796,-1.409 0.142,-2.205 4.553,-6.06 3.57,0 1.081,2.487 -1.691,0 2.82,1.879 1.549,-4.085 3.566,0 3.149,-4.977 13.247,0 1.733,2.492 11.838,0 0.47,1.074 9.397,0.47 1.402,0.941 3.903,0.189 1.403,0.611 z m -46.685,18.549 -0.936,-2.49 -1.884,0 1.083,2.49 1.737,0 z"
         inkscape:connector-curvature="0"
         style="fill:#ffffff" /><path
         id="path136"
         d="m 71.346,-40.478 0,0.373 -4.311,0 c 0.042,0.475 0.135,1.456 1.451,1.456 0.47,0 0.936,-0.184 1.078,-0.606 l 1.693,0 c -0.422,1.451 -1.693,2.061 -2.771,2.061 -1.737,0 -3.102,-0.983 -3.102,-3.519 0,-0.755 0.238,-3.193 3.009,-3.193 1.22,0 2.953,0.656 2.953,3.428 z m -4.269,-0.755 2.536,0 c -0.093,-1.032 -0.706,-1.313 -1.267,-1.313 -0.752,0 -1.176,0.512 -1.269,1.313 z"
         inkscape:connector-curvature="0"
         style="fill:#ffffff" /><path
         id="path138"
         d="m 69.613,-41.233 -2.536,0 c 0.093,-0.801 0.517,-1.313 1.269,-1.313 0.562,0 1.174,0.281 1.267,1.313 z"
         inkscape:connector-curvature="0"
         style="fill:#0c0e0f" /><polygon
         id="polygon140"
         points="67.861,148.59 66.592,150.61 65.043,150.61 66.124,148.59 "
         transform="translate(-2.3355,-169.77)"
         style="fill:#ffffff" /><path
         id="path142"
         d="m 64.82,-38.697 0,1.318 c -0.279,0 -0.515,0.044 -0.799,0.044 l -0.233,0 c -1.407,0 -1.644,-0.564 -1.644,-1.407 l 0,-3.805 -0.843,0 0,-1.176 0.843,0 0,-1.691 1.644,0 0,1.691 1.032,0 0,1.176 -1.032,0 0,3.386 c 0,0.37 0,0.51 0.659,0.51 0.141,0.001 0.234,0.001 0.373,-0.046 z"
         inkscape:connector-curvature="0"
         style="fill:#ffffff" /><polygon
         id="polygon144"
         points="65.514,152.16 65.043,153.57 65.844,153.57 65.043,155.31 62.554,155.31 64.296,152.16 "
         transform="translate(-2.3355,-169.77)"
         style="fill:#ffffff" /><polygon
         id="polygon146"
         points="60.863,137.04 61.752,138.12 63.963,139.52 60.395,139.52 59.456,138.12 56.915,137.04 "
         transform="translate(-2.3355,-169.77)"
         style="fill:#ffffff" /><polygon
         id="polygon148"
         points="49.589,144.69 50.718,142.02 51.799,142.48 52.551,142.02 54.288,141.69 54.288,142.82 57.246,143.9 58.988,140 60.392,143.9 62.882,147.79 61.752,150.61 59.733,152.96 57.577,152.96 55.837,151.08 53.352,150.61 47.9,152.16 46.494,151.08 46.163,146.71 "
         transform="translate(-2.3355,-169.77)"
         style="fill:#ffffff" /><path
         id="path150"
         d="m 60.41,-41.796 0,4.322 -1.647,0 0,-3.803 c 0,-0.47 -0.047,-1.174 -1.078,-1.174 -0.706,0 -1.318,0.473 -1.318,1.407 l 0,3.57 -1.64,0 0,-6.248 1.593,0 0,0.941 c 0.24,-0.377 0.706,-1.125 1.926,-1.125 1.22,0 2.164,0.747 2.164,2.11 z"
         inkscape:connector-curvature="0"
         style="fill:#ffffff" /><polygon
         id="polygon152"
         points="53.681,114.07 55.085,114.07 56.45,111.91 56.45,108.76 57.246,107.21 58.187,108.76 56.778,108.76 57.859,111.91 56.17,114.87 53.958,114.87 "
         transform="translate(-2.3355,-169.77)"
         style="fill:#ffffff" /><polygon
         id="polygon154"
         points="55.837,136.71 53.958,137.79 55.085,138.92 53.352,138.44 53.205,138.92 52.081,138.92 52.269,136.71 53.352,137.04 "
         transform="translate(-2.3355,-169.77)"
         style="fill:#ffffff" /><rect
         id="rect156"
         height="8.4069996"
         width="1.784"
         y="-45.881001"
         x="51.436001"
         style="fill:#ffffff" /><polygon
         id="polygon158"
         points="47.9,137.51 48.652,137.04 50.718,134.83 51.468,135.63 51,138.91 48.51,138.91 "
         transform="translate(-2.3355,-169.77)"
         style="fill:#ffffff" /><polygon
         id="polygon160"
         points="46.773,137.32 46.773,138.59 42.875,133.89 42.875,132.34 "
         transform="translate(-2.3355,-169.77)"
         style="fill:#ffffff" /><polygon
         id="polygon162"
         points="39.304,127.83 39.919,128.91 38.976,130.32 38.508,129.24 "
         transform="translate(-2.3355,-169.77)"
         style="fill:#ffffff" /><polygon
         id="polygon164"
         points="28.552,135.02 30.711,137.79 27.425,142.82 25.734,139.99 "
         transform="translate(-2.3355,-169.77)"
         style="fill:#ffffff" /><polygon
         id="polygon166"
         points="28.226,109.7 29.162,112.19 27.425,112.19 26.342,109.7 "
         transform="translate(-2.3355,-169.77)"
         style="fill:#0c0e0f" /><polygon
         id="polygon168"
         points="9.201,115.81 11.36,113.79 12.299,110.97 15.261,109.89 16.339,112.66 16.339,114.4 17.748,112.66 16.339,109.42 17.466,109.42 19.488,112.99 21.647,109.7 24.465,109.7 26.013,112.19 20.566,112.19 20.897,114.4 24.185,114.4 23.056,116.89 19.159,116.89 19.159,117.97 15.261,116.89 14.979,115.48 "
         transform="translate(-2.3355,-169.77)"
         style="fill:#0c0e0f" /><polygon
         id="polygon170"
         points="10.61,104.12 10.142,101.91 11.36,101.91 11.22,102.99 11.97,104.86 11.97,106.27 9.811,106.27 10.279,105.81 9.811,105.48 9.811,104.39 "
         transform="translate(-2.3355,-169.77)"
         style="fill:#ffffff" /><polygon
         id="polygon172"
         points="9.199,102.99 8.731,104.72 7.604,104.72 8.074,102.99 "
         transform="translate(-2.3355,-169.77)"
         style="fill:#ffffff" /></g></g></svg>